# AST/ASF file generated using VICON BodyLanguage
# -----------------------------------------------
:version 1.10
:name VICON
:units
  mass 1.0
  length 0.45
  angle deg
:documentation
   .ast/.asf automatically generated from VICON data using
   VICON BodyBuilder and BodyLanguage model FoxedUp or BRILLIANT.MOD
:root
   order TX TY TZ RX RY RZ
   axis XYZ
   position 0 0 0  
   orientation 0 0 0 
:bonedata
  begin
     id 1 
     name lhipjoint
     direction 0.578396 -0.714046 0.394458 
     length 2.21935 
     axis 0 0 0  XYZ
  end
  begin
     id 2 
     name lfemur
     direction 0.34202 -0.939693 0  
     length 6.39105  
     axis 0 0 20  XYZ
    dof rx ry rz
    limits (-160.0 20.0)
           (-70.0 70.0)
           (-60.0 70.0)
  end
  begin
     id 3 
     name ltibia
     direction 0.34202 -0.939693 0   
     length 6.99037   
     axis 0 0 20   XYZ
    dof rx
    limits (-10.0 170.0)
  end
  begin
     id 4 
     name lfoot
     direction 0.0582372 -0.160005 0.985397   
     length 2.06111   
     axis -90 7.62852e-016 20   XYZ
    dof rx rz
    limits (-45.0 90.0)
           (-70.0 20.0)
  end
  begin
     id 5 
     name ltoes
     direction 1.53556e-011 -4.21875e-011 1   
     length 1.04074   
     axis -90 7.62852e-016 20   XYZ
    dof rx
    limits (-90.0 20.0)
  end
  begin
     id 6 
     name rhipjoint
     direction -0.558179 -0.726269 0.40121   
     length 2.182  
     axis 0 0 0  XYZ 
  end
  begin
     id 7 
     name rfemur
     direction -0.34202 -0.939693 0   
     length 6.51172   
     axis 0 0 -20   XYZ
    dof rx ry rz
    limits (-160.0 20.0)
           (-70.0 70.0)
           (-70.0 60.0)
  end
  begin
     id 8 
     name rtibia
     direction -0.34202 -0.939693 0   
     length 7.02607   
     axis 0 0 -20   XYZ
    dof rx
    limits (-10.0 170.0)
 end
 begin
     id 9 
     name rfoot
     direction -0.0788856 -0.216737 0.973038   
     length 1.96734  
     axis -90 -7.62852e-016 -20   XYZ
    dof rx rz
    limits (-45.0 90.0)
           (-20.0 70.0)
  end
  begin
     id 10 
     name rtoes
     direction -1.53567e-011 -4.21783e-011 1   
     length 0.990825   
     axis -90 -7.62852e-016 -20   XYZ
    dof rx
    limits (-90.0 20.0)
  end
  begin
     id 11 
     name lowerback
     direction 0.00668177 0.999323 -0.0361741   
     length 1.7655   
     axis 0 0 0   XYZ
    dof rx ry rz
    limits (-20.0 45.0)
           (-30.0 30.0)
           (-30.0 30.0)
  end
  begin
     id 12 
     name upperback
     direction -0.00222086 0.99851 0.0545167   
     length 1.74912   
     axis 0 0 0   XYZ
    dof rx ry rz
    limits (-20.0 45.0)
           (-30.0 30.0)
           (-30.0 30.0)
  end
  begin
     id 13 
     name thorax
     direction -0.00733971 0.997496 0.0703443   
     length 1.75715   
     axis 0 0 0   XYZ
    dof rx ry rz
    limits (-20.0 45.0)
           (-30.0 30.0)
           (-30.0 30.0)
  end
  begin
     id 14 
     name lowerneck
     direction 0.0279797 0.994795 0.0979765   
     length 1.46939   
     axis 0 0 0   XYZ
    dof rx ry rz
    limits (-20.0 45.0)
           (-30.0 30.0)
           (-30.0 30.0)
  end
  begin
     id 15 
     name upperneck
     direction 0.00339187 0.976776 -0.214238   
     length 1.48018   
     axis 0 0 0   XYZ
    dof rx ry rz
    limits (-20.0 45.0)
           (-30.0 30.0)
           (-30.0 30.0)
  end
  begin
     id 16
     name head
     direction -0.00263506 0.996603 -0.0823096  
     length 1.4976  
     axis 0 0 0   XYZ
    dof rx ry rz
    limits (-20.0 45.0)
           (-30.0 30.0)
           (-30.0 30.0)
  end
  begin
     id 17 
     name lclavicle
     direction 0.894044 0.44508 -0.0508781  
     length 3.03024  
     axis 0 0 0   XYZ
    dof ry rz
    limits (-20.0 10.0)
           (0.0 20.0)
  end
  begin
     id 18 
     name lhumerus
     direction 1 -4.48961e-011 -2.39475e-018   
     length 4.4661   
     axis 180 -30 -90   XYZ
    dof rx ry rz
    limits (-60.0 90.0)
           (-90.0 90.0)
           (-90.0 90.0)
  end
  begin
     id 19
     name lradius
     direction 1 -4.48961e-011 9.29328e-028   
     length 3.41414   
     axis 180 -30 -90   XYZ
    dof rx
    limits (-10.0 170.0)
  end
  begin
     id 20
     name lwrist
     direction 1 -4.48985e-011 1.53461e-026   
     length 1.70707   
     axis -1.09697e-014 90 90   XYZ
    dof ry
    limits (-180.0 0.0)
 end
  begin
     id 21 
     name lhand
     direction 1 -4.48966e-011 3.06923e-026   
     length 0.328298   
     axis -1.95843e-014 90 90   XYZ
    dof rx rz
    limits (-90.0 90.0)
           (-45.0 45.0)
  end
  begin
     id 22 
     name lfingers
     direction 1 -4.48893e-011 6.13845e-026   
     length 0.264682   
     axis -3.91686e-014 90 90   XYZ
    dof rx
    limits (0.0 90.0)
  end
  begin
     id 23
     name lthumb
     direction 0.707107 -6.34876e-011 0.707107   
     length 0.380032   
     axis -90 45 2.85299e-015   XYZ
    dof rx rz
    limits (-45.0 45.0)
           (-45.0 45.0)
  end
  begin
     id 24 
     name rclavicle
     direction -0.936955 0.347862 -0.0332887   
     length 3.26927  
     axis 0 0 0   XYZ 
    dof ry rz
    limits (-10.0 20.0)
           (-20.0 0.0)
  end
  begin
     id 25 
     name rhumerus
     direction -1 -4.4896e-011 1.78637e-018  
     length 4.40431   
     axis 180 30 90   XYZ
    dof rx ry rz
    limits (-90.0 60.0)
           (-90.0 90.0)
           (-90.0 90.0)
  end
  begin
     id 26 
     name rradius
     direction -1 -4.48955e-011 9.34036e-027   
     length 3.04688   
     axis 180 30 90   XYZ
    dof rx
    limits (-10.0 170.0)
  end
  begin
     id 27 
     name rwrist
     direction -1 -4.49011e-011 1.53461e-026   
     length 1.52344   
     axis -1.09697e-014 -90 -90   XYZ
    dof ry
    limits (-180.0 0.0)
  end
  begin
     id 28
     name rhand
     direction -1 -4.48834e-011 3.06923e-026   
     length 0.500489   
     axis -1.95843e-014 -90 -90   XYZ
    dof rx rz
    limits (-90.0 90.0)
           (-45.0 45.0)
  end
  begin
     id 29
     name rfingers
     direction -1 -4.48967e-011 6.13845e-026   
     length 0.403507   
     axis -3.91686e-014 -90 -90   XYZ
    dof rx
    limits (0.0 90.0)
  end
  begin
     id 30
     name rthumb
     direction -0.707107 -6.34826e-011 0.707107   
     length 0.579358   
     axis -90 -45 -2.85299e-015   XYZ
    dof rx rz
    limits (-45.0 45.0)
           (-45.0 45.0)
  end
:hierarchy
  begin
    root lhipjoint rhipjoint lowerback
    lhipjoint lfemur
    lfemur ltibia
    ltibia lfoot
    lfoot ltoes
    rhipjoint rfemur
    rfemur rtibia
    rtibia rfoot
    rfoot rtoes
    lowerback upperback
    upperback thorax
    thorax lowerneck lclavicle rclavicle
    lowerneck upperneck
    upperneck head
    lclavicle lhumerus
    lhumerus lradius
    lradius lwrist
    lwrist lhand lthumb
    lhand lfingers
    rclavicle rhumerus
    rhumerus rradius
    rradius rwrist
    rwrist rhand rthumb
    rhand rfingers
  end

#!OML:ASF H:\IndianDance\Patient Classification 1\Patient 1\Session 1\dancer.ASF
:FULLY-SPECIFIED
:DEGREES
1474
root -18.9089 14.3852 17.8092 -190.47 39.6435 -191.922
lowerback 22.42 2.527 1.85068
upperback -2.14048 3.28129 -6.24477
thorax -14.6559 1.09258 -9.51205
lowerneck -11.4921 -10.6655 -8.0055
upperneck 1.806 -13.3249 5.82369
head 3.2725 -6.39782 2.11542
rclavicle -1.30701e-014 -6.44062e-014
rhumerus 57.2033 -4.24831 -77.8949
rradius 62.7018
rwrist -90.6347
rhand -31.1776 -7.15182
rfingers 7.12502
rthumb -4.45459 -37.085
lclavicle -1.30701e-014 -6.44062e-014
lhumerus -18.4168 -70.4549 28.6219
lradius 95.7172
lwrist -32.319
lhand -66.0347 -71.9283
lfingers 7.12502
lthumb -37.8757 313.905
rfemur -107.718 -18.0744 59.7376
rtibia 136.426
rfoot 54.0433 -6.56185
rtoes 42.8228
lfemur -0.425673 18.3261 -26.8912
ltibia 38.1506
lfoot -29.8328 11.4961
ltoes -13.7093
1475
root -18.9368 14.3706 17.7846 -191.096 39.7915 -192.657
lowerback 22.5191 2.55608 1.6648
upperback -2.17794 3.26044 -6.38621
thorax -14.7654 1.08807 -9.58277
lowerneck -11.5935 -10.4368 -7.94935
upperneck 1.78256 -12.9812 5.34595
head 3.22121 -6.24472 1.99355
rclavicle -3.60297e-014 3.97569e-016
rhumerus 57.6464 -3.70743 -77.1718
rradius 62.8236
rwrist -90.4998
rhand -32.6625 -7.5848
rfingers 7.12502
rthumb -5.88838 -37.483
lclavicle -3.60297e-014 3.97569e-016
lhumerus -19.9967 -70.6917 29.7224
lradius 94.9707
lwrist -32.5125
lhand -66.0718 -72.7043
lfingers 7.12502
lthumb -37.9108 313.119
rfemur -109.517 -14.9878 62.1298
rtibia 138.41
rfoot 54.4631 -9.59202
rtoes 43.7048
lfemur -0.12586 18.5285 -27.5556
ltibia 37.9373
lfoot -29.8053 11.6138
ltoes -14.5162
1476
root -18.9601 14.3532 17.7628 -191.749 39.9028 -193.419
lowerback 22.6277 2.6222 1.37965
upperback -2.20431 3.26425 -6.51433
thorax -14.8691 1.10533 -9.58747
lowerneck -11.6117 -10.1997 -7.90579
upperneck 1.48357 -12.6231 4.68527
head 3.43361 -6.10269 2.03152
rclavicle 2.37796e-014 6.08281e-014
rhumerus 57.9633 -3.2072 -76.3913
rradius 63.0927
rwrist -90.3701
rhand -34.0547 -7.95127
rfingers 7.12502
rthumb -7.2324 -37.8077
lclavicle 2.37796e-014 6.08281e-014
lhumerus -21.362 -70.8999 30.7356
lradius 94.2024
lwrist -32.6215
lhand -66.0748 -73.1669
lfingers 7.12502
lthumb -37.9137 312.656
rfemur -111.056 -11.5178 64.1058
rtibia 140.037
rfoot 54.6135 -12.5927
rtoes 44.3197
lfemur 0.165003 18.7567 -28.197
ltibia 37.7707
lfoot -29.7904 11.6402
ltoes -15.2615
1477
root -18.9789 14.3336 17.7432 -192.404 39.987 -194.178
lowerback 22.7338 2.70937 1.02061
upperback -2.22371 3.27751 -6.62749
thorax -14.9664 1.13514 -9.53324
lowerneck -11.7555 -9.94139 -7.7829
upperneck 1.53482 -12.2464 4.15779
head 3.39932 -5.93275 1.8633
rclavicle 2.15681e-014 2.98177e-014
rhumerus 58.1601 -2.71076 -75.6064
rradius 63.502
rwrist -90.2354
rhand -35.3662 -8.24343
rfingers 7.12502
rthumb -8.49821 -38.0524
lclavicle 2.15681e-014 2.98177e-014
lhumerus -22.6126 -71.0643 31.7218
lradius 93.4155
lwrist -32.6613
lhand -66.0795 -73.3008
lfingers 7.12502
lthumb -37.9181 312.521
rfemur -112.346 -7.88982 65.7017
rtibia 141.297
rfoot 54.5065 -15.4361
rtoes 44.7121
lfemur 0.449178 18.9976 -28.7975
ltibia 37.6402
lfoot -29.7886 11.5987
ltoes -15.936
1478
root -18.9937 14.3125 17.7253 -193.041 40.0504 -194.908
lowerback 22.8271 2.81718 0.627783
upperback -2.23103 3.31088 -6.72685
thorax -15.0413 1.17979 -9.44691
lowerneck -11.9393 -9.6697 -7.6244
upperneck 1.64185 -11.8532 3.59821
head 3.38921 -5.75611 1.67702
rclavicle -1.00076e-014 8.94531e-014
rhumerus 58.245 -2.23001 -74.8191
rradius 64.0477
rwrist -90.0697
rhand -36.6163 -8.45955
rfingers 7.12502
rthumb -9.70441 -38.216
lclavicle -1.00076e-014 8.94531e-014
lhumerus -23.6496 -71.1817 32.5873
lradius 92.6211
lwrist -32.6324
lhand -66.0848 -73.4691
lfingers 7.12502
lthumb -37.9231 312.351
rfemur -113.395 -4.35687 66.9546
rtibia 142.218
rfoot 54.1534 -17.9106
rtoes 44.8933
lfemur 0.723204 19.2354 -29.3498
ltibia 37.541
lfoot -29.7964 11.5299
ltoes -16.5715
1479
root -19.0046 14.2915 17.7088 -193.639 40.0929 -195.581
lowerback 22.901 2.93747 0.237139
upperback -2.22135 3.36388 -6.8101
thorax -15.0824 1.23645 -9.34528
lowerneck -12.1741 -9.38399 -7.44551
upperneck 1.80969 -11.4401 3.01972
head 3.40998 -5.57094 1.47943
rclavicle -1.18215e-014 8.34896e-014
rhumerus 58.2282 -1.76285 -74.0401
rradius 64.7229
rwrist -89.8606
rhand -37.7911 -8.6163
rfingers 7.12502
rthumb -10.8378 -38.3167
lclavicle -1.18215e-014 8.34896e-014
lhumerus -24.4401 -71.2412 33.2968
lradius 91.8298
lwrist -32.5376
lhand -66.0686 -73.6969
lfingers 7.12502
lthumb -37.9078 312.127
rfemur -114.184 -1.20433 67.9511
rtibia 142.821
rfoot 53.6581 -19.9075
rtoes 44.8629
lfemur 0.99191 19.4467 -29.8418
ltibia 37.4658
lfoot -29.8295 11.4252
ltoes -17.0461
1480
root -19.0122 14.2709 17.6931 -194.174 40.1179 -196.178
lowerback 22.945 3.05558 -0.121412
upperback -2.20334 3.42449 -6.88247
thorax -15.0942 1.29599 -9.24785
lowerneck -12.4485 -9.07417 -7.23424
upperneck 2.03889 -10.9963 2.42606
head 3.45937 -5.37253 1.27117
rclavicle 2.40592e-014 -7.95139e-016
rhumerus 58.1082 -1.28477 -73.3062
rradius 65.5167
rwrist -89.5924
rhand -38.8675 -8.72888
rfingers 7.12502
rthumb -11.8759 -38.3721
lclavicle 2.40592e-014 -7.95139e-016
lhumerus -25.035 -71.2338 33.8729
lradius 91.0524
lwrist -32.388
lhand -66.027 -74.0581
lfingers 7.12502
lthumb -37.8685 311.777
rfemur -114.728 1.35782 68.7055
rtibia 143.155
rfoot 53.1071 -21.3952
rtoes 44.7455
lfemur 1.23918 19.6222 -30.2736
ltibia 37.4122
lfoot -29.876 11.3201
ltoes -17.3893
1481
root -19.017 14.2515 17.6779 -194.625 40.123 -196.684
lowerback 22.9524 3.16114 -0.418399
upperback -2.18132 3.48677 -6.94921
thorax -15.0767 1.35254 -9.17563
lowerneck -12.7627 -8.73878 -6.99001
upperneck 2.33475 -10.52 1.82114
head 3.54059 -5.16044 1.05335
rclavicle -6.61518e-014 -1.15295e-014
rhumerus 57.8837 -0.786677 -72.6278
rradius 66.428
rwrist -89.2589
rhand -39.8493 -8.82284
rfingers 7.12502
rthumb -12.8225 -38.409
lclavicle -6.61518e-014 -1.15295e-014
lhumerus -25.4293 -71.1548 34.2952
lradius 90.2997
lwrist -32.1956
lhand -65.9164 -74.4137
lfingers 7.12502
lthumb -37.764 311.449
rfemur -115.031 3.20047 69.2425
rtibia 143.273
rfoot 52.5927 -22.3561
rtoes 44.5625
lfemur 1.45257 19.7504 -30.6451
ltibia 37.3805
lfoot -29.9355 11.217
ltoes -17.5704
1482
root -19.0194 14.2347 17.6631 -194.976 40.1058 -197.091
lowerback 22.9161 3.249 -0.640164
upperback -2.15762 3.54788 -7.00918
thorax -15.028 1.40355 -9.13332
lowerneck -13.115 -8.37765 -6.71878
upperneck 2.69475 -10.0094 1.2024
head 3.65389 -4.93424 0.826297
rclavicle -4.33257e-014 2.0276e-014
rhumerus 57.556 -0.256201 -72.0001
rradius 67.4642
rwrist -88.8537
rhand -40.7608 -8.93924
rfingers 7.12502
rthumb -13.7011 -38.4682
lclavicle -4.33257e-014 2.0276e-014
lhumerus -25.638 -70.9913 34.5796
lradius 89.5823
lwrist -31.9624
lhand -65.7343 -74.6757
lfingers 7.12502
lthumb -37.592 311.233
rfemur -115.111 4.22118 69.6069
rtibia 143.224
rfoot 52.2188 -22.744
rtoes 44.3119
lfemur 1.61356 19.8262 -30.958
ltibia 37.3802
lfoot -29.9972 11.1404
ltoes -17.6593
1483
root -19.0195 14.2201 17.6485 -195.223 40.0585 -197.399
lowerback 22.8422 3.31956 -0.773304
upperback -2.1339 3.61158 -7.06873
thorax -14.9518 1.44912 -9.13831
lowerneck -13.4998 -7.99877 -6.42866
upperneck 3.10637 -9.47389 0.57684
head 3.79647 -4.69836 0.593164
rclavicle 1.63034e-014 4.45278e-014
rhumerus 57.1214 0.294461 -71.4146
rradius 68.6266
rwrist -88.3673
rhand -41.6287 -9.09956
rfingers 7.12502
rthumb -14.5374 -38.5702
lclavicle 1.63034e-014 4.45278e-014
lhumerus -25.6201 -70.7463 34.694
lradius 88.9141
lwrist -31.6884
lhand -65.4668 -74.5755
lfingers 7.12502
lthumb -37.3391 311.401
rfemur -114.995 4.48337 69.7687
rtibia 143.051
rfoot 51.9588 -22.6481
rtoes 43.9802
lfemur 1.71434 19.8562 -31.2119
ltibia 37.419
lfoot -30.0627 11.0689
ltoes -17.6367
1484
root -19.0177 14.2073 17.6343 -195.354 39.9853 -197.601
lowerback 22.7319 3.37123 -0.816221
upperback -2.11832 3.67529 -7.12433
thorax -14.8587 1.48725 -9.18726
lowerneck -13.9015 -7.5969 -6.1085
upperneck 3.56286 -8.90778 -0.0709982
head 3.96237 -4.45084 0.347952
rclavicle 8.49649e-014 2.38542e-015
rhumerus 56.5734 0.885264 -70.8604
rradius 69.9275
rwrist -87.7914
rhand -42.4926 -9.35179
rfingers 7.12502
rthumb -15.3697 -38.7605
lclavicle 8.49649e-014 2.38542e-015
lhumerus -25.4585 -70.4111 34.7037
lradius 88.3197
lwrist -31.3702
lhand -65.1153 -73.8469
lfingers 7.12502
lthumb -37.0067 312.216
rfemur -114.711 4.09148 69.7091
rtibia 142.771
rfoot 51.8142 -22.1518
rtoes 43.5721
lfemur 1.73791 19.8539 -31.3983
ltibia 37.509
lfoot -30.1085 11.0422
ltoes -17.6839
1485
root -19.0136 14.1961 17.6203 -195.385 39.8685 -197.72
lowerback 22.5818 3.40707 -0.79451
upperback -2.10986 3.73626 -7.18042
thorax -14.7471 1.51924 -9.2691
lowerneck -14.3791 -7.18574 -5.81658
upperneck 4.44671 -8.31594 -0.67016
head 3.82985 -4.19589 0.0895199
rclavicle 1.83612e-014 -7.95139e-016
rhumerus 55.9146 1.52036 -70.3318
rradius 71.3557
rwrist -87.086
rhand -43.3675 -9.75823
rfingers 7.12502
rthumb -16.2123 -39.1003
lclavicle 1.83612e-014 -7.95139e-016
lhumerus -25.1802 -69.9864 34.6349
lradius 87.823
lwrist -30.9964
lhand -64.7015 -72.3758
lfingers 7.12502
lthumb -36.6152 313.787
rfemur -114.295 3.09987 69.4004
rtibia 142.406
rfoot 51.7255 -21.2694
rtoes 43.0846
lfemur 1.68771 19.8298 -31.5298
ltibia 37.6576
lfoot -30.1376 11.0412
ltoes -17.8327
